<?xml version="1.0" encoding="UTF-8"?>
<svg id="Capa_1" data-name="Capa 1" xmlns="http://www.w3.org/2000/svg" viewBox="0 0 48 48">
  <defs>
    <style>
      .cls-1 {
        fill: #fff;
        stroke-width: 0px;
      }
    </style>
  </defs>
  <path class="cls-1" d="m.01,25.6c0-1.06,0-2.12,0-3.19.03-.15.07-.3.09-.45.12-.85.18-1.71.35-2.54,1.17-5.86,4.1-10.68,8.82-14.34C14.61.93,20.69-.64,27.38.24c3.93.52,7.55,1.94,10.71,4.34,7.53,5.74,10.81,13.38,9.67,22.76-.68,5.65-3.3,10.42-7.47,14.29-3.44,3.18-7.48,5.19-12.1,6-.86.15-1.72.25-2.58.37h-3.19c-.59-.07-1.17-.13-1.76-.22-5.63-.85-10.42-3.33-14.29-7.51-3.17-3.42-5.18-7.45-5.99-12.06-.15-.87-.25-1.75-.38-2.62Zm11.73,9.03h24.15v-17.88c-.16.11-.27.19-.37.27-3.4,2.7-6.81,5.39-10.19,8.11-.97.78-1.77.83-2.81.03-3.03-2.31-6.07-4.61-9.1-6.91-.54-.41-1.08-.82-1.68-1.26v17.64Zm12.26-12.75c3.58-2.83,7.12-5.63,10.76-8.5H12.9c3.76,2.88,7.42,5.68,11.11,8.5Z"/>
</svg>