<?xml version="1.0" encoding="UTF-8"?>
<svg id="Capa_1" data-name="Capa 1" xmlns="http://www.w3.org/2000/svg" viewBox="0 0 48 48">
  <defs>
    <style>
      .cls-1 {
        fill: #fff;
        stroke-width: 0px;
      }
    </style>
  </defs>
  <path class="cls-1" d="m22.21,0c1.16,0,2.31,0,3.47,0,.15.03.3.07.45.09.79.11,1.58.16,2.36.31,5.92,1.19,10.81,4.13,14.48,8.93,4.49,5.87,5.97,12.5,4.46,19.73-1.18,5.68-4.15,10.33-8.73,13.87-5.69,4.4-12.15,5.91-19.21,4.63-5.18-.94-9.56-3.43-13.13-7.3-3.3-3.58-5.34-7.78-6.08-12.6-.1-.63-.18-1.26-.28-1.88,0-1.19,0-2.37,0-3.56.07-.52.13-1.04.21-1.56.68-4.58,2.48-8.67,5.5-12.19C9.45,4.1,14.15,1.38,19.82.37c.79-.14,1.59-.24,2.39-.37Zm3.86,36.25c0-.22,0-.41,0-.59,0-3.06,0-6.12,0-9.18,0-.92.2-1.76.82-2.47.84-.97,1.91-1.31,3.16-1.03,1.14.25,1.73,1.06,1.99,2.13.11.45.19.92.19,1.38.02,3.08.01,6.15.02,9.23,0,.18,0,.36,0,.54h5.82v-.52c0-2.34.01-4.69,0-7.03,0-1.4.03-2.82-.12-4.21-.29-2.88-1.88-5.86-5.99-6.17-2.25-.17-4.15.52-5.52,2.4-.09.12-.18.23-.27.35-.03,0-.07-.02-.1-.03v-2.29h-5.78v17.5h5.79Zm-9.1,0v-17.52h-5.75v17.52h5.75Zm-6.11-22.98c0,1.76,1.37,3.02,3.24,3.01,1.93-.01,3.31-1.28,3.29-3.03-.02-1.79-1.39-3.05-3.28-3.04-1.92.02-3.26,1.27-3.25,3.06Z"/>
</svg>