<?xml version="1.0" encoding="UTF-8"?>
<svg id="Capa_1" data-name="Capa 1" xmlns="http://www.w3.org/2000/svg" viewBox="0 0 96 96">
  <defs>
    <style>
      .cls-1 {
        fill: #9d79f3;
        stroke-width: 0px;
      }
    </style>
  </defs>
  <path class="cls-1" d="m36.16,7.33c.33.16.45.47.37.92l-1.29,6.98c-.04.49-.33.63-.86.43-.61-.2-1.33-.31-2.14-.31-.33,0-.78.04-1.35.12-1.47.12-2.72.66-3.74,1.62-1.02.96-1.53,2.24-1.53,3.83v16.72c0,.2-.07.38-.21.52s-.32.21-.52.21h-7.16c-.2,0-.38-.07-.52-.21-.14-.14-.21-.32-.21-.52V7.63c0-.2.07-.38.21-.52.14-.14.32-.21.52-.21h7.16c.2,0,.38.07.52.21.14.14.21.32.21.52v2.33c0,.12.04.2.12.24.08.04.14.02.18-.06,1.67-2.45,3.92-3.67,6.74-3.67,1.47,0,2.63.29,3.49.86Z"/>
  <path class="cls-1" d="m70.2,73.18c0,2.82-.35,5.29-1.04,7.41-.94,2.78-2.44,4.96-4.5,6.55-2.06,1.59-4.5,2.39-7.32,2.39-2.98,0-5.33-1.12-7.04-3.37-.08-.08-.16-.11-.24-.09-.08.02-.12.09-.12.21v2.02c0,.2-.07.38-.21.52-.14.14-.32.21-.52.21h-7.16c-.2,0-.38-.07-.52-.21-.14-.14-.21-.32-.21-.52v-41.4c0-.2.07-.38.21-.52s.32-.21.52-.21h7.16c.2,0,.38.07.52.21.14.14.21.32.21.52v13.1c0,.12.04.2.12.24.08.04.16,0,.24-.12,1.59-2.04,3.86-3.06,6.8-3.06s5.48.77,7.5,2.3c2.02,1.53,3.5,3.6,4.44,6.22.78,2.12,1.16,4.65,1.16,7.59Zm-8.94.18c0-2.82-.49-4.98-1.47-6.49-.98-1.59-2.43-2.39-4.35-2.39-1.8,0-3.16.8-4.1,2.39-.9,1.55-1.35,3.7-1.35,6.43s.41,4.8,1.22,6.18c.98,1.76,2.41,2.63,4.29,2.63,2,0,3.49-.88,4.47-2.63.86-1.55,1.29-3.59,1.29-6.12Z"/>
  <rect class="cls-1" x="17" y="46.18" width="19.56" height="42.89" rx=".72" ry=".72"/>
  <g>
    <path class="cls-1" d="m51.6,6.47h-5.76v4.56h9.12v-4.56h-3.35Z"/>
    <path class="cls-1" d="m51.15,33.81h-5.3V11.02h-4.55v22.79h4.55v4.56h9.12v-4.56h-3.81Z"/>
    <path class="cls-1" d="m68.69,38.37h5.76v-4.56h-9.12v4.56h3.35Z"/>
    <path class="cls-1" d="m69.15,11.02h5.3v22.79h4.55V11.02h-4.55v-4.56h-9.12v4.56h3.81Z"/>
    <path class="cls-1" d="m58.17,26.46h-2.54v2.54h2.54v-2.54Z"/>
    <path class="cls-1" d="m55.63,23.93h-2.54v2.54h2.54v-2.54Z"/>
    <path class="cls-1" d="m53.09,21.38h-2.54v2.54h2.54v-2.54Z"/>
    <path class="cls-1" d="m55.63,18.85h-2.54v2.54h2.54v-2.54Z"/>
    <path class="cls-1" d="m58.17,16.3h-2.54v2.54h2.54v-2.54Z"/>
    <path class="cls-1" d="m63.93,26.46h-2.54v2.54h2.54v-2.54Z"/>
    <path class="cls-1" d="m66.46,23.93h-2.54v2.54h2.54v-2.54Z"/>
    <path class="cls-1" d="m69,21.38h-2.54v2.54h2.54v-2.54Z"/>
    <path class="cls-1" d="m66.46,18.85h-2.54v2.54h2.54v-2.54Z"/>
    <path class="cls-1" d="m63.93,16.3h-2.54v2.54h2.54v-2.54Z"/>
  </g>
</svg>