<?xml version="1.0" encoding="UTF-8"?>
<svg id="Capa_1" data-name="Capa 1" xmlns="http://www.w3.org/2000/svg" viewBox="0 0 48 48">
  <defs>
    <style>
      .cls-1 {
        fill: #fff;
        stroke-width: 0px;
      }
    </style>
  </defs>
  <path class="cls-1" d="m25.67,48h-3.38c-.14-.03-.27-.07-.41-.09-.8-.11-1.62-.17-2.41-.32-5.17-1.01-9.56-3.45-13.14-7.32-3.31-3.58-5.35-7.79-6.09-12.61-.1-.63-.18-1.26-.28-1.88,0-1.19,0-2.38,0-3.56.07-.52.13-1.04.21-1.56.69-4.64,2.49-8.79,5.6-12.3C11.3,2.11,18.28-.62,26.56.12c3.4.3,6.56,1.42,9.52,3.12,8.54,4.91,13.3,15,11.61,24.7-.94,5.41-3.42,10-7.45,13.72-3.42,3.15-7.43,5.15-12.02,5.97-.84.15-1.69.25-2.54.37Zm-15.64-9.83c.17-.02.25-.03.32-.05,2.26-.59,4.52-1.17,6.78-1.78.36-.1.64-.06.97.1,2.97,1.47,6.09,1.91,9.33,1.21,7.85-1.68,12.73-9.23,11.11-17.08-1.82-8.78-11.53-13.77-19.73-10.15-7.79,3.44-10.92,12.52-6.93,20.05.1.18.13.45.08.65-.24.95-.51,1.89-.77,2.84-.38,1.38-.75,2.76-1.15,4.2Z"/>
  <path class="cls-1" d="m13.44,34.82c.37-1.33.68-2.57,1.05-3.78.13-.44.08-.78-.16-1.17-4.4-7.21-.27-16.46,8.06-18.04,6.46-1.22,12.89,3.31,13.89,9.79,1,6.43-2.98,12.31-9.33,13.68-3.03.65-5.92.14-8.61-1.45-.26-.16-.49-.19-.78-.11-1.33.37-2.67.71-4.12,1.09Zm14.79-4.36c.19,0,.38.02.56,0,1.57-.25,3.02-1.19,2.98-3.07,0-.18-.12-.46-.27-.53-.97-.5-1.95-.97-2.94-1.42-.31-.15-.58-.07-.81.24-.32.44-.69.85-1.03,1.28-.21.27-.46.33-.78.2-2.12-.85-3.74-2.27-4.91-4.23-.17-.28-.15-.51.06-.77.3-.36.6-.72.83-1.13.12-.2.17-.52.09-.73-.35-.93-.74-1.85-1.14-2.76-.09-.2-.26-.45-.45-.5-.59-.16-1.46-.17-2,.41-1.28,1.38-1.63,3.11-.75,4.89,1.47,2.97,3.63,5.34,6.58,6.9,1.24.65,2.54,1.19,3.98,1.22Z"/>
</svg>